<svg width="160" height="60" viewBox="0 0 128 60" xmlns="http://www.w3.org/2000/svg" version="1.1">

 <g>
  <title>Layer 1</title>
  <g id="surface1">
   <path id="svg_1" fill="rgb(100%,100%,100%)" fill-rule="nonzero" d="m22.44141,30c0,1.34766 -1.09375,2.44141 -2.44141,2.44141c-1.34766,0 -2.44141,-1.09375 -2.44141,-2.44141c0,-1.34766 1.09375,-2.44141 2.44141,-2.44141c1.34766,0 2.44141,1.09375 2.44141,2.44141zm0,0"/>
   <path id="svg_2" fill="rgb(100%,100%,100%)" fill-rule="nonzero" d="m20.09766,24.75781c11.16015,-14.47265 0.17187,-14.75781 0.17187,-14.75781c0,0 -10.99219,0.03125 -0.17187,14.75781zm0,0"/>
   <path id="svg_3" fill="rgb(100%,100%,100%)" fill-rule="nonzero" d="m16.36328,26.22266c-2.33984,-18.125 -10.3125,-10.55469 -10.3125,-10.55469c0,0 -7.75391,7.79687 10.3125,10.55469zm0,0"/>
   <path id="svg_4" fill="rgb(100%,100%,100%)" fill-rule="nonzero" d="m14.75781,29.90234c-14.47265,-11.16406 -14.75781,-0.17187 -14.75781,-0.17187c0,0 0.03125,10.99219 14.75781,0.17187zm0,0"/>
   <path id="svg_5" fill="rgb(100%,100%,100%)" fill-rule="nonzero" d="m16.22266,33.63672c-18.125,2.33984 -10.55469,10.3125 -10.55469,10.3125c0,0 7.79687,7.75391 10.55469,-10.3125zm0,0"/>
   <path id="svg_6" fill="rgb(100%,100%,100%)" fill-rule="nonzero" d="m19.90234,35.24219c-11.16406,14.47265 -0.17187,14.75781 -0.17187,14.75781c0,0 10.99219,-0.03125 0.17187,-14.75781zm0,0"/>
   <path id="svg_7" fill="rgb(100%,100%,100%)" fill-rule="nonzero" d="m23.63672,33.77734c2.33984,18.125 10.3125,10.55469 10.3125,10.55469c0,0 7.75391,-7.79297 -10.3125,-10.55469zm0,0"/>
   <path id="svg_8" fill="rgb(100%,100%,100%)" fill-rule="nonzero" d="m25.24219,30.10156c14.47265,11.16016 14.75781,0.16797 14.75781,0.16797c0,0 -0.03125,-10.99219 -14.75781,-0.16797zm0,0"/>
   <path id="svg_9" fill="rgb(100%,100%,100%)" fill-rule="nonzero" d="m23.77734,26.36328c18.125,-2.34375 10.55469,-10.3125 10.55469,-10.3125c0,0 -7.79687,-7.75391 -10.55469,10.3125zm0,0"/>
   <path id="svg_10" fill="rgb(100%,100%,100%)" fill-rule="nonzero" d="m59.19531,29.44531c3.19922,0.32813 5.42578,1.67578 5.42578,4.42578c0,3.5 -3.47656,5.69922 -8.17187,5.69922l-8.44922,0l0,-0.125c1.02344,-0.375 1.89844,-0.90234 1.89844,-1.80078l0,-14.14453c0,-0.90234 -0.875,-1.17578 -1.89844,-1.30078l0,-0.125l7.44922,0c4.04687,0 7.51953,0.625 7.51953,3.47266c0,1.85156 -1.52344,3.39843 -3.77344,3.89843zm-3.87109,-6.97265l-2,0l0,6.89843l3.79687,0c1.35157,0 2.5,-0.34765 2.5,-2.64843c0,-2.375 -1.22265,-4.25 -4.29687,-4.25zm1.375,16.69531c3.22266,0 4.52344,-0.625 4.52344,-4.32422c0,-2.44922 -0.60157,-5.04687 -5.30078,-5.04687l-2.59766,0l0,8.79687c1.19922,0.375 2.19922,0.57422 3.375,0.57422zm16.56641,-11.87109c4.02343,0 6.64843,2.47656 6.64843,6.22265c0,3.67578 -2.625,6.22266 -6.64843,6.22266c-4.02344,0 -6.64454,-2.47266 -6.64454,-6.22266c0,-3.67187 2.6211,-6.22265 6.64454,-6.22265zm0.97656,12.02343c1.80078,0 2.625,-1.5 2.625,-3.875c0,-3.34765 -1.55078,-7.72265 -4.57422,-7.72265c-1.80078,0 -2.625,1.47265 -2.625,3.89843c0,3.32422 1.57422,7.69922 4.57422,7.69922zm14.32031,-12.02343c4.02344,0 6.64844,2.47656 6.64844,6.22265c0,3.67578 -2.625,6.22266 -6.64844,6.22266c-4.02344,0 -6.64844,-2.47266 -6.64844,-6.22266c0,-3.67187 2.625,-6.22265 6.64844,-6.22265zm0.97266,12.02343c1.80078,0 2.625,-1.5 2.625,-3.875c0,-3.34765 -1.54688,-7.72265 -4.57422,-7.72265c-1.79688,0 -2.6211,1.47265 -2.6211,3.89843c0,3.32422 1.57422,7.69922 4.57032,7.69922zm21.67187,0.25l-4.77344,0l0,-0.42578l-4.55078,-5.32422l-0.5,0l0,3.32422c0,1.35156 0.17578,2.05078 1.42578,2.32422l0,0.10156l-4.82421,0l0.22656,-1.55078l0,-14.87109c0,-1 -0.65235,-0.875 -2.25,-0.39844l0,-0.15234l5.54687,-2.59766l-0.125,1.125l0,12.62109l5,-4.94921c0.47266,-0.47266 0.72266,-1 -0.5,-1.19922l0.05078,-0.14844l4.34766,0l-0.05078,0.14844c-1.05078,0.125 -2.72266,0.72656 -4.875,2.875l-1.54688,1.54687l3.67188,4.25c1.72656,1.97656 2.42578,2.64844 3.72656,3.30078zm0.375,0l0,-0.125c1.02344,-0.125 1.89844,-0.40234 1.89844,-1.30078l0,-14.64453c0,-0.90234 -0.875,-1.17578 -1.89844,-1.30078l0,-0.125l7.22266,0l0,0.125c-1.02735,0.125 -1.90235,0.39844 -1.90235,1.30078l0,14.64453c0,0.89844 0.875,1.17578 1.90235,1.30078l0,0.125l-7.22266,0zm12.44531,0.39844l-2.72656,-0.625l0.07813,-1.5l0,-11.64453c0,-1.05078 -0.65235,-0.90234 -2.32422,-0.42578l0,-0.14844l5.69531,-2.65234l-0.19922,1.15234l0,3.32422l3.07422,0l-0.125,0.59766l-2.94922,0l0,11.07031l3.44922,-0.09766l0,0.09766l-3.44922,0.85156l-0.52344,0zm0,0"/>
  </g>
 </g>
</svg>