<svg width="24" height="25" viewBox="0 0 24 25" fill="none" xmlns="http://www.w3.org/2000/svg">
<path d="M8.26687 25C8.24197 25.0002 8.21717 24.9967 8.19328 24.9897L0.726563 22.8564C0.6709 22.8404 0.62195 22.8068 0.587109 22.7605C0.552268 22.7142 0.533429 22.6579 0.533438 22.6V5.53329C0.53342 5.49199 0.543027 5.45125 0.561497 5.41431C0.579967 5.37737 0.606792 5.34524 0.639844 5.32047C0.672738 5.29531 0.711121 5.27828 0.751855 5.27078C0.79259 5.26329 0.83452 5.26554 0.874219 5.27735L8.34093 7.41063C8.39659 7.42661 8.44554 7.46027 8.48039 7.50653C8.51523 7.55279 8.53407 7.60913 8.53406 7.66704V24.7333C8.53406 24.804 8.50596 24.8719 8.45594 24.9219C8.40592 24.9719 8.33808 25 8.26734 25H8.26687ZM1.06687 22.3989L8.00015 24.3798V7.86766L1.06687 5.88719V22.3989Z" fill="#898989"/>
<path d="M8.26688 25C8.19614 25 8.1283 24.9719 8.07828 24.9219C8.02826 24.8719 8.00016 24.804 8.00016 24.7333V7.66656C8.0001 7.60857 8.01898 7.55215 8.05392 7.50586C8.08886 7.45958 8.13796 7.42598 8.19375 7.41015L10.3645 6.7914C10.3982 6.78183 10.4334 6.77898 10.4681 6.78301C10.5029 6.78704 10.5365 6.79787 10.567 6.81489C10.5976 6.83191 10.6245 6.85478 10.6462 6.8822C10.6679 6.90962 10.684 6.94104 10.6936 6.97468C10.7032 7.00833 10.706 7.04352 10.702 7.07827C10.698 7.11301 10.6871 7.14662 10.6701 7.17717C10.6531 7.20773 10.6302 7.23464 10.6028 7.25635C10.5754 7.27807 10.544 7.29417 10.5103 7.30375L8.53313 7.86625V24.3798L15.4688 22.3989V14.0669C15.4688 13.9961 15.4969 13.9283 15.5469 13.8783C15.5969 13.8283 15.6647 13.8002 15.7355 13.8002C15.8062 13.8002 15.8741 13.8283 15.9241 13.8783C15.9741 13.9283 16.0022 13.9961 16.0022 14.0669V22.5981C16.0022 22.656 15.9834 22.7124 15.9485 22.7586C15.9137 22.8049 15.8647 22.8386 15.8091 22.8545L8.34 24.9897C8.31625 24.9966 8.29162 25.0001 8.26688 25Z" fill="#898989"/>
<path d="M23.1998 25C23.1749 25.0002 23.1501 24.9967 23.1262 24.9897L15.66 22.8564C15.6047 22.8401 15.5562 22.8063 15.5217 22.76C15.4872 22.7138 15.4686 22.6577 15.4688 22.6V14.0687C15.4688 13.998 15.4969 13.9302 15.5469 13.8801C15.5969 13.8301 15.6647 13.802 15.7355 13.802C15.8062 13.802 15.874 13.8301 15.9241 13.8801C15.9741 13.9302 16.0022 13.998 16.0022 14.0687V22.3989L22.9355 24.3798V7.86765L20.9583 7.30515C20.9246 7.29558 20.8932 7.27947 20.8658 7.25776C20.8384 7.23604 20.8155 7.20913 20.7985 7.17858C20.7641 7.11687 20.7557 7.04403 20.775 6.97609C20.7943 6.90815 20.8399 6.85067 20.9016 6.8163C20.9633 6.78192 21.0361 6.77348 21.1041 6.79281L23.2748 7.41156C23.3306 7.42738 23.3797 7.46099 23.4147 7.50727C23.4496 7.55355 23.4685 7.60997 23.4684 7.66796V24.7333C23.4684 24.804 23.4403 24.8719 23.3903 24.9219C23.3403 24.9719 23.2725 25 23.2017 25H23.1998Z" fill="#898989"/>
<path d="M15.7331 14.3331C15.6725 14.3333 15.6136 14.3128 15.5662 14.275C15.3445 14.0974 10.133 9.89032 10.133 6.60016C10.1262 5.86045 10.266 5.12674 10.5444 4.44138C10.8228 3.75603 11.2342 3.13262 11.7549 2.60717C12.2756 2.08171 12.8952 1.66461 13.578 1.37996C14.2607 1.09532 14.9932 0.948761 15.7329 0.948761C16.4726 0.948761 17.205 1.09532 17.8878 1.37996C18.5706 1.66461 19.1902 2.08171 19.7109 2.60717C20.2315 3.13262 20.6429 3.75603 20.9213 4.44138C21.1997 5.12674 21.3396 5.86045 21.3328 6.60016C21.3328 9.89032 16.1212 14.0974 15.8995 14.275C15.8523 14.3127 15.7936 14.3332 15.7331 14.3331ZM15.7331 1.53297C14.3898 1.53458 13.102 2.06899 12.1522 3.01895C11.2024 3.96891 10.6682 5.25683 10.6669 6.60016C10.6669 9.32406 14.8387 12.9714 15.7336 13.7209C16.627 12.9709 20.8003 9.32406 20.8003 6.60016C20.7988 5.25675 20.2645 3.96881 19.3145 3.01892C18.3645 2.06904 17.0765 1.5348 15.7331 1.53343V1.53297Z" fill="#898989"/>
<path d="M15.7331 7.93328C15.4695 7.93328 15.2117 7.85509 14.9925 7.70861C14.7732 7.56212 14.6024 7.35392 14.5015 7.11032C14.4006 6.86672 14.3742 6.59868 14.4256 6.34007C14.4771 6.08147 14.604 5.84393 14.7905 5.65749C14.9769 5.47105 15.2144 5.34408 15.473 5.29265C15.7316 5.24121 15.9997 5.26761 16.2433 5.36851C16.4869 5.46941 16.6951 5.64028 16.8416 5.85951C16.9881 6.07874 17.0662 6.33649 17.0662 6.60015C17.0659 6.95361 16.9253 7.29248 16.6754 7.54241C16.4254 7.79233 16.0866 7.93291 15.7331 7.93328ZM15.7331 5.8C15.5749 5.8 15.4202 5.84693 15.2886 5.93485C15.157 6.02277 15.0544 6.14774 14.9939 6.29395C14.9333 6.44016 14.9175 6.60104 14.9483 6.75626C14.9792 6.91147 15.0554 7.05405 15.1673 7.16595C15.2792 7.27785 15.4218 7.35406 15.577 7.38494C15.7322 7.41581 15.8931 7.39996 16.0393 7.3394C16.1855 7.27884 16.3105 7.17628 16.3984 7.0447C16.4864 6.91311 16.5333 6.75841 16.5333 6.60015C16.533 6.38802 16.4487 6.18464 16.2986 6.03463C16.1486 5.88463 15.9453 5.80025 15.7331 5.8Z" fill="#898989"/>
</svg>
